<svg id="bd7358f0-f15f-400d-8e4f-6883fd15359b" data-name="expanded" xmlns="http://www.w3.org/2000/svg" viewBox="0 0 125 125"><title>Amnesty Icons</title><path d="M93.54,57.65a9.47,9.47,0,1,0-9.46-9.47A9.47,9.47,0,0,0,93.54,57.65Zm0-16.94a7.48,7.48,0,1,1-7.47,7.47A7.48,7.48,0,0,1,93.54,40.71Z"/><path d="M34.4,57.65a9.47,9.47,0,1,0-9.47-9.47A9.47,9.47,0,0,0,34.4,57.65Zm0-16.94a7.48,7.48,0,1,1-7.47,7.47A7.48,7.48,0,0,1,34.4,40.71Z"/><path d="M63.93,54.31A13.63,13.63,0,1,0,50.31,40.68,13.63,13.63,0,0,0,63.93,54.31Zm0-21.28a7.65,7.65,0,1,1-7.65,7.65A7.66,7.66,0,0,1,63.93,33Z"/><path d="M89.93,64.39a12.46,12.46,0,0,0-.73-2.47v0c-1.79-4.29-5.47-4.85-8.64-4.85H47c-3.23,0-7,.57-8.75,5.09h0a13.55,13.55,0,0,0-.64,2.26l-3.18,17c-.38,1.85-1.56,7.46,4.77,10.68C41.41,93.23,47.53,96,51,97.5a5.27,5.27,0,0,0,7-2.79l2.39-4.44c.94-2.23-.52-4.32-2.47-5.76l-.07-.05-6.59-4.59L53.14,72a1,1,0,0,0-.68-1.16l-4-.94a1,1,0,0,0-1.12.75L45.77,77,45.31,79a5.23,5.23,0,0,0,2,5.45l.07,0L53.88,89l-1.14,2.74c-5.44-2.42-9.37-4.23-10.84-5-1.82-.93-2.13-1.74-1.62-4.23l3.19-17c.45-2.3.85-2.49,3.53-2.49H80.55c2.68,0,3.07.19,3.51,2.47l3.21,17.13c.51,2.42.19,3.21-1.62,4.13-1.48.76-5.41,2.54-10.84,5L73.67,89l6.52-4.55.07,0a5.27,5.27,0,0,0,2-5.45l-2-8.32a1,1,0,0,0-1.12-.75l-4.05.93A1,1,0,0,0,74.4,72l1.91,7.89-6.59,4.59-.07.05a5.23,5.23,0,0,0-1.72,6.25l1.65,3.95a5.25,5.25,0,0,0,7,2.78C80,96,86.12,93.22,88.36,92.08c6.32-3.22,5.15-8.86,4.77-10.64Z"/><path d="M113.85,76.8,111.63,65C110.94,61.47,109,61,106.17,61H91a15.59,15.59,0,0,1,.68,2h14.52c2.2,0,3.07.16,3.5,2.44l2.22,11.65c.39,1.86.24,3.11-1.69,4.09-1.54.79-6.15,2.84-8,3.69a.59.59,0,0,1-.45,0,.56.56,0,0,1-.32-.32l-1.15-2.74a.59.59,0,0,1,.19-.69l4.88-3.4a2.58,2.58,0,0,0,1-2.68l-1.09-4.54a1,1,0,1,0-1.94.46l1.1,4.54a.61.61,0,0,1-.22.61l-4.88,3.39a2.58,2.58,0,0,0-.86,3.08l1.14,2.74A2.55,2.55,0,0,0,101,86.72a2.64,2.64,0,0,0,1,.19,2.48,2.48,0,0,0,1-.21c2.39-1.06,6.63-2.93,8.15-3.7C114.35,81.35,114.27,78.84,113.85,76.8Z"/><path d="M36.48,61.22H26.59c-1.87,0-2.7-.6-3.26-2.34l-3.4-10.94a5,5,0,0,1-.11-1.75l2.16-11a.81.81,0,0,0,0-.41,2.46,2.46,0,0,0-1.88-2.17l-3.78-1a2.52,2.52,0,0,0-1.91.34,2.46,2.46,0,0,0-1.07,1.58L11.1,45.06A8.48,8.48,0,0,0,11,47.42a24,24,0,0,0,.58,3.78L15,68.85a14.79,14.79,0,0,1,.32,2.79v11a1,1,0,0,0,2,0v-11a15.71,15.71,0,0,0-.37-3.2L13.49,50.78A21.57,21.57,0,0,1,13,47.32a7.36,7.36,0,0,1,.09-1.84l2.24-11.61a.47.47,0,0,1,.2-.29.45.45,0,0,1,.34-.08l3.78,1A.48.48,0,0,1,20,35L17.85,45.87A7.09,7.09,0,0,0,18,48.44l3.42,11a4.83,4.83,0,0,0,5.17,3.74h9.24A13.79,13.79,0,0,1,36.48,61.22Z"/></svg>