<svg id="b74d4d2a-45e6-4890-b30e-79dd2180b4ce" data-name="expanded" xmlns="http://www.w3.org/2000/svg" viewBox="0 0 125 125"><title>Amnesty Icons</title><path d="M60.43,98.9l0-16,1,0c.1-.67.2-1.34.33-2-.45,0-.9,0-1.36,0l0-20,10.57,0c.55-.68,1.12-1.35,1.71-2l-12.28,0,0-20.7A64.09,64.09,0,0,0,76.6,35.92,59,59,0,0,1,80.52,52c.61-.42,1.23-.83,1.87-1.22a60.68,60.68,0,0,0-3.87-15.47,47.09,47.09,0,0,0,9.4-4.1A39.75,39.75,0,0,1,99.61,58.79H97.3c.15.67.28,1.33.41,2H99.6a40.11,40.11,0,0,1-1.17,8.5,45.62,45.62,0,0,1-1.18,9.77,35.86,35.86,0,0,1,4.29-.49,46.06,46.06,0,0,0-42-65.07h-.11a46.06,46.06,0,0,0,.11,92.11h.1c1.45,0,2.88-.08,4.3-.21a44.86,44.86,0,0,1-2-6.73A12.13,12.13,0,0,1,60.43,98.9Zm26-69.08a46.6,46.6,0,0,1-8.69,3.68c-.48-1-1-2.05-1.53-3-2.7-4.84-6-8.34-9.51-10.35A39.7,39.7,0,0,1,86.42,29.82Zm-25.87-9.6c5.2.46,10.1,4.41,13.9,11.23.47.84.9,1.71,1.32,2.61a62.31,62.31,0,0,1-15.25,2.11Zm-8.26-.06c-3.56,2-6.79,5.54-9.46,10.39-.54,1-1,2-1.52,3a46.74,46.74,0,0,1-8.71-3.65A39.72,39.72,0,0,1,52.29,20.16ZM31.11,31.38a47.68,47.68,0,0,0,9.41,4.06,64.7,64.7,0,0,0-4.29,23.49L19.54,59A39.71,39.71,0,0,1,31.11,31.38ZM19.56,61l16.68,0a64.46,64.46,0,0,0,4.39,22.82,47.73,47.73,0,0,0-9.38,4.09A39.85,39.85,0,0,1,19.56,61Zm13.2,28.31a46.12,46.12,0,0,1,8.67-3.68q.72,1.58,1.53,3c2.68,4.82,5.92,8.31,9.47,10.32A40,40,0,0,1,32.76,89.28Zm25.67,9.58c-5.14-.53-10-4.46-13.72-11.2-.47-.84-.91-1.72-1.33-2.61a62.43,62.43,0,0,1,15.07-2.11Zm0-17.93a63.55,63.55,0,0,0-15.89,2.25,62.06,62.06,0,0,1-4.32-22.25l20.25,0Zm0-22.05-20.26,0A62.61,62.61,0,0,1,42.45,36a63.63,63.63,0,0,0,16.07,2.18Zm0-22.71a62.06,62.06,0,0,1-15.26-2c.42-.9.85-1.77,1.32-2.61,3.79-6.9,8.73-10.87,14-11.3Z"/><path d="M68.12,107.92A36,36,0,0,1,70.58,100a37.38,37.38,0,0,1,17.77-43.4A37.06,37.06,0,0,1,88,82a36,36,0,0,1,7.07-2.51,43,43,0,0,0-2.41-28.29l-1.22-2.74-2.74,1.22A43.36,43.36,0,0,0,66.76,106.9l1.09,2.46Z"/><path d="M78.69,112.36a33.6,33.6,0,0,1-6.2-.58l-2.95-.54.54-2.95a34,34,0,0,1,39.59-27.21l3,.55-.55,3A34,34,0,0,1,78.69,112.36Zm-2-6.07a28,28,0,0,0,28.68-19.71A28,28,0,0,0,76.74,106.29Z"/></svg>