<svg id="a8886944-e1e5-4b6a-b7a8-5b76998390db" data-name="expanded" xmlns="http://www.w3.org/2000/svg" viewBox="0 0 125 125"><title>Amnesty Icons</title><path d="M89.16,17.66l-2.81-.56a1.27,1.27,0,0,0-.39,0l-2.8.56L62.85,21.71a.86.86,0,0,1-.39,0L42.15,17.66l-2.83-.56a.85.85,0,0,0-.42,0l-2.75.63L12.43,23.25a1,1,0,0,0-.77,1v73.9a1,1,0,0,0,1.22,1L39,93a.85.85,0,0,1,.42,0l20.25,4,3,.6,3-.6L86,93a.86.86,0,0,1,.39,0l26.31,5.24V23.17a1,1,0,0,0-.81-1Zm-53,69.88L17.66,91.83V28.19L36.15,23.9ZM59.66,91,42.15,87.46V23.78l17.51,3.49Zm23.5-3.49L65.66,91V27.27l17.5-3.49ZM106.66,91l-17.5-3.49V23.78l17.5,3.49Z"/><circle cx="26.16" cy="49.74" r="2"/><path d="M102.14,74.42,99.22,70.8l2.65-2.23a1,1,0,0,0,.12-1.41h0a1,1,0,0,0-1.41-.12L98,69.24l-2.9-3.59a1,1,0,0,0-1.4-.15h0a1,1,0,0,0-.15,1.41l2.92,3.62-2.65,2.23a1,1,0,0,0-.12,1.41h0a1,1,0,0,0,1.41.12l2.62-2.21,2.9,3.6a1,1,0,0,0,1.4.15h0A1,1,0,0,0,102.14,74.42Z"/><path d="M51.69,72.4a1,1,0,0,0-1.32-.06,13.66,13.66,0,0,1-1.52,1.1,1,1,0,0,0-.36,1.3l0,.06a1,1,0,0,0,1.34.37,16.13,16.13,0,0,0,1.83-1.33,1,1,0,0,0,.05-1.39Z"/><path d="M39.87,76A17.43,17.43,0,0,1,38,75.88a1,1,0,0,0-1.07.82v.06a1,1,0,0,0,.89,1.11c.64.06,1.29.09,1.94.09.41,0,.81,0,1.22,0l-.06-1A1,1,0,0,0,39.87,76Z"/><path d="M46.68,75.58A1,1,0,0,0,45.46,75a16.08,16.08,0,0,1-1.84.5,1,1,0,0,0-.77,1.11v.06a1,1,0,0,0,1.14.8,22,22,0,0,0,2.15-.59,1,1,0,0,0,.56-1.27Z"/><path d="M55.32,67.66l-.06,0A1,1,0,0,0,54,68c-.37.62-.74,1.18-1.1,1.68A1,1,0,0,0,53,70.94l.06,0a1,1,0,0,0,1.39-.19c.38-.54.77-1.13,1.17-1.78A1,1,0,0,0,55.32,67.66Z"/><path d="M58.07,62.31l-.06,0a1,1,0,0,0-1.29.45c-.33.69-.63,1.29-.91,1.84a1,1,0,0,0,.42,1.29l.06,0a1,1,0,0,0,1.31-.41c.28-.56.58-1.17.92-1.88A1,1,0,0,0,58.07,62.31Z"/><path d="M23.85,57.41h.07a1,1,0,0,0,1-.83c.1-.73.24-1.33.34-1.78.28-1.14-.65-1.31-.65-1.31l.06,0a1,1,0,0,0-1.32.69A19.83,19.83,0,0,0,23,56.3,1,1,0,0,0,23.85,57.41Z"/><path d="M34.28,75.13a13.87,13.87,0,0,1-1.77-.7,1,1,0,0,0-1.25.38l-.05.08a1,1,0,0,0,.41,1.33,18.18,18.18,0,0,0,2.09.83,1,1,0,0,0,1.21-.69l0-.06A1,1,0,0,0,34.28,75.13Z"/><path d="M60.65,56.89l-.06,0a1,1,0,0,0-1.29.46l-.86,1.79a1,1,0,0,0,.48,1.33h0A1,1,0,0,0,60.25,60l.85-1.79A1,1,0,0,0,60.65,56.89Z"/><path d="M24.17,63.38A1,1,0,0,0,25,62.29c-.07-.49-.19-1.28-.22-1.9a.91.91,0,0,0-1-.93h-.05a1,1,0,0,0-.93,1c0,.71.1,1.43.19,2.14a1,1,0,0,0,1.13.8Z"/><path d="M26.45,67.8c-.25-.6-.47-1.2-.67-1.81a1,1,0,0,0-1.18-.66h-.07a1,1,0,0,0-.67,1.21c.22.7.48,1.39.76,2.06a1,1,0,0,0,1.3.48l.06,0A1,1,0,0,0,26.45,67.8Z"/><path d="M28.2,71a1,1,0,0,0-1.26-.23l-.06,0a1,1,0,0,0-.26,1.42,12.68,12.68,0,0,0,1.49,1.63,1,1,0,0,0,1.44-.11l0-.05a1,1,0,0,0-.1-1.29A9.46,9.46,0,0,1,28.2,71Z"/><path d="M97.17,46a19.15,19.15,0,0,0-1.33-1.78,1,1,0,0,0-1.38-.07l0,0a1,1,0,0,0-.07,1.35A17.11,17.11,0,0,1,95.47,47a1,1,0,0,0,1.31.32l.06,0A1,1,0,0,0,97.17,46Z"/><path d="M91.27,40a1,1,0,0,0-1.33.39l0,.06a1,1,0,0,0,.38,1.29,18.69,18.69,0,0,1,1.56,1.07,1,1,0,0,0,1.34-.12l0-.05a1,1,0,0,0-.12-1.38A17.73,17.73,0,0,0,91.27,40Z"/><path d="M98.84,52.79h.07a1,1,0,0,0,.71-1.19,21.46,21.46,0,0,0-.72-2.09,1,1,0,0,0-1.29-.5l-.06,0a1,1,0,0,0-.49,1.25,18.55,18.55,0,0,1,.62,1.82A1,1,0,0,0,98.84,52.79Z"/><path d="M99.32,60.6h-.06a1,1,0,0,0-1.05.84c-.09.63-.2,1.26-.32,1.9a1,1,0,0,0,.71,1.15h.07a1,1,0,0,0,1.17-.74c.14-.7.26-1.39.35-2.08A1,1,0,0,0,99.32,60.6Z"/><path d="M87.11,38.17a18.23,18.23,0,0,0-2.17-.57,1,1,0,0,0-1.12.82v.07a1,1,0,0,0,.8,1.09,15.66,15.66,0,0,1,1.82.47,1,1,0,0,0,1.23-.56l0-.06A1,1,0,0,0,87.11,38.17Z"/><path d="M100.31,55.46a1,1,0,0,0-1.1-.84h-.06a1,1,0,0,0-.82,1.07c0,.44.07,1.27.09,1.93a1,1,0,0,0,1,1h0a1,1,0,0,0,1-1C100.4,56.85,100.36,55.94,100.31,55.46Z"/><path d="M75.94,39.2a1,1,0,0,0-1.26-.58,17.85,17.85,0,0,0-2,1,1,1,0,0,0-.3,1.35l0,.06a1,1,0,0,0,1.31.29,16.69,16.69,0,0,1,1.69-.85,1,1,0,0,0,.55-1.2Z"/><path d="M70.77,42.17a1,1,0,0,0-1.38-.12c-.53.47-1,1-1.56,1.53A1,1,0,0,0,67.91,45l0,0a1,1,0,0,0,1.35-.09c.47-.49.93-1,1.41-1.37a1,1,0,0,0,.08-1.34Z"/><path d="M66.65,46.51a1,1,0,0,0-1.38.22c-.4.55-.79,1.13-1.19,1.75a1,1,0,0,0,.31,1.34l.06,0a1,1,0,0,0,1.32-.3c.38-.59.76-1.14,1.14-1.67a1,1,0,0,0-.21-1.33Z"/><path d="M63.43,51.57l-.06,0a1,1,0,0,0-1.33.38c-.32.58-.65,1.19-1,1.85a1,1,0,0,0,.42,1.3l.06,0a1,1,0,0,0,1.3-.42c.33-.64.65-1.24,1-1.81A1,1,0,0,0,63.43,51.57Z"/><path d="M81.84,38.34a1,1,0,0,0-1-1,17,17,0,0,0-2.23.22,1,1,0,0,0-.76,1.17l0,.06a1,1,0,0,0,1.12.74,15.16,15.16,0,0,1,1.88-.19,1,1,0,0,0,.94-.93Z"/><path d="M23.29,48.91a3,3,0,0,1,1.18-1.65l-1.35-1.35H25l-.39-1.56,1.82,1.9.36-2.59.13.79.72-.61-.54,1.07h3.21L27.9,47.3A3,3,0,0,1,29.05,49l6.07-6.06h-4.8L33.79,36l-5.48,4.66L26.64,30.16,25,41.87l-4.19-4.41,1.61,6.45H18.29Z"/></svg>