<svg id="e9c756b5-79d6-41fe-88ad-8faa7bf28500" data-name="expanded" xmlns="http://www.w3.org/2000/svg" viewBox="0 0 125 125"><title>Amnesty Icons</title><path d="M111.77,41.56s0-.06,0-.09a1,1,0,0,0-.06-.25s0-.08,0-.11a1.43,1.43,0,0,0-.14-.2l-.07-.08a1.21,1.21,0,0,0-.3-.2L60.15,20A.84.84,0,0,0,59.8,20h-.09a.75.75,0,0,0-.26.05h-.06l0,0a.73.73,0,0,0-.23.16l-.07.05h0a1.17,1.17,0,0,0-.17.28v0L46.3,51.63v0a.88.88,0,0,0-.07.33V52a1.11,1.11,0,0,0,.08.36h0a1,1,0,0,0,.53.54l4.82,2h5.38L50.2,52.12l21.36-6.76,4.15,7.85a1,1,0,0,0,.88.53,1.19,1.19,0,0,0,.32-.05l8.43-2.76,2.14,4h2.28L87.27,50.3,109,43.17,99.26,67.38v5.34L111.7,41.93v0a.88.88,0,0,0,.07-.32ZM49,50.42,59.9,23.32,70.61,43.57Zm28.13,1.11L61.94,22.91l45.92,18.55Z"/><path d="M15.62,41.39l15.69,8.74L27.4,54.89H30l3.1-3.77,6.15,3.43a1,1,0,0,0,.49.12,1,1,0,0,0,.78-.37l4.42-5.48,3.29-7.27L39.48,52.39,17.11,39.93l34.47-6.7L52.47,31,14,38.49a1,1,0,0,0-.33.13l-.09.07-.18.17,0,0,0,.05a1.12,1.12,0,0,0-.11.25s0,0,0,.08v0a.9.9,0,0,0,0,.33s0,0,0,0l5.18,26.68v0a1,1,0,0,0,.12.32,1,1,0,0,0,.86.49l.19,0,3.59-.7v-2L22,64.64l1.23-1.5V60L20,63.89Z"/><path d="M96.26,56.89H26.2a1,1,0,0,0-1,1V104a1,1,0,0,0,1,1H96.26a1,1,0,0,0,1-1V57.89A1,1,0,0,0,96.26,56.89ZM89.49,63,61.23,86.83,33,63ZM31.2,64.14l20.24,17L31.2,97.91ZM33,99,53,82.5l7.59,6.4a1.05,1.05,0,0,0,.65.23,1,1,0,0,0,.64-.23l7.59-6.4L89.45,99Zm58.25-1.1L71,81.19l20.24-17Z"/></svg>