<svg id="baa589fa-dcc8-4db9-89fb-d559d6138d0b" data-name="expanded" xmlns="http://www.w3.org/2000/svg" viewBox="0 0 125 125"><title>Amnesty Icons</title><path d="M37.9,58.32a1,1,0,0,0-1,1v30a1,1,0,0,0,2,0v-30A1,1,0,0,0,37.9,58.32Z"/><path d="M52.9,58.32a1,1,0,0,0-1,1v30a1,1,0,0,0,2,0v-30A1,1,0,0,0,52.9,58.32Z"/><path d="M67.9,58.32a1,1,0,0,0-1,1v30a1,1,0,0,0,2,0v-30A1,1,0,0,0,67.9,58.32Z"/><path d="M82.9,58.32a1,1,0,0,0-1,1v30a1,1,0,0,0,2,0v-30A1,1,0,0,0,82.9,58.32Z"/><path d="M34.9,67.32h-9a1,1,0,0,0,0,2h9a1,1,0,1,0,0-2Z"/><path d="M34.9,79.32h-9a1,1,0,0,0,0,2h9a1,1,0,1,0,0-2Z"/><path d="M49.9,67.32h-9a1,1,0,0,0,0,2h9a1,1,0,1,0,0-2Z"/><path d="M49.9,79.32h-9a1,1,0,0,0,0,2h9a1,1,0,1,0,0-2Z"/><path d="M64.9,67.32h-9a1,1,0,0,0,0,2h9a1,1,0,0,0,0-2Z"/><path d="M64.9,79.32h-9a1,1,0,0,0,0,2h9a1,1,0,0,0,0-2Z"/><path d="M79.9,67.32h-9a1,1,0,0,0,0,2h9a1,1,0,0,0,0-2Z"/><path d="M79.9,79.32h-9a1,1,0,0,0,0,2h9a1,1,0,0,0,0-2Z"/><path d="M85.9,69.32h9a1,1,0,0,0,0-2h-9a1,1,0,0,0,0,2Z"/><path d="M94.9,79.32h-9a1,1,0,0,0,0,2h9a1,1,0,0,0,0-2Z"/><path d="M37.9,40.27h4a1,1,0,0,0,1-1h0v0h0V27.38h0v-.06h0a1,1,0,0,0-1-.94h-4a1,1,0,0,0-1,.94h0v12h0A1,1,0,0,0,37.9,40.27Z"/><path d="M78.9,40.27h4a1,1,0,0,0,1-1h0v0h0V27.38h0v-.06h0a1,1,0,0,0-1-.94h-4a1,1,0,0,0-1,.94h0v12h0A1,1,0,0,0,78.9,40.27Z"/><rect x="44.9" y="32.32" width="31" height="2"/><path d="M27.73,65.18a1,1,0,0,0,1.41,0l1.26-1.25,1.26,1.25a1,1,0,0,0,1.41,0,1,1,0,0,0,0-1.41l-1.26-1.26,1.26-1.26a1,1,0,1,0-1.41-1.41L30.4,61.1l-1.26-1.26a1,1,0,0,0-1.41,1.41L29,62.51l-1.26,1.26A1,1,0,0,0,27.73,65.18Z"/><path d="M42.73,77a1,1,0,0,0,1.41,0l1.26-1.26L46.66,77a1,1,0,0,0,1.41-1.42l-1.26-1.26,1.26-1.26a1,1,0,0,0-1.41-1.41L45.4,72.91l-1.26-1.26a1,1,0,0,0-1.41,1.41L44,74.32l-1.26,1.26A1,1,0,0,0,42.73,77Z"/><path d="M72.73,65.18a1,1,0,0,0,1.41,0l1.26-1.25,1.26,1.25a1,1,0,0,0,1.41,0,1,1,0,0,0,0-1.41l-1.26-1.26,1.26-1.26a1,1,0,0,0-1.41-1.41L75.4,61.1l-1.26-1.26a1,1,0,0,0-1.41,1.41L74,62.51l-1.26,1.26A1,1,0,0,0,72.73,65.18Z"/><path d="M93.07,83.22a1,1,0,0,0-1.41,0L90.4,84.48l-1.26-1.26a1,1,0,0,0-1.41,0,1,1,0,0,0,0,1.42L89,85.89l-1.26,1.26a1,1,0,0,0,1.41,1.42l1.26-1.26,1.26,1.26a1,1,0,0,0,1.41-1.42l-1.26-1.26,1.26-1.25A1,1,0,0,0,93.07,83.22Z"/><path d="M78.07,83.22a1,1,0,0,0-1.41,0L75.4,84.48l-1.26-1.26a1,1,0,0,0-1.41,0,1,1,0,0,0,0,1.42L74,85.89l-1.26,1.26a1,1,0,0,0,1.41,1.42l1.26-1.26,1.26,1.26a1,1,0,0,0,1.41-1.42l-1.26-1.26,1.26-1.25A1,1,0,0,0,78.07,83.22Z"/><path d="M100.1,36.62H98.9v-1.3a3,3,0,0,0-3-3h-10v2h10a1,1,0,0,1,1,1v15.3h-73V35.32a1,1,0,0,1,1-1h10v-2h-10a3,3,0,0,0-3,3v56a3,3,0,0,0,3,3h1.2v1.3a3,3,0,0,0,3,3h71a3,3,0,0,0,3-3v-56A3,3,0,0,0,100.1,36.62ZM23.9,91.32V56.62h73v34.7a1,1,0,0,1-1,1h-71A1,1,0,0,1,23.9,91.32Zm77.2,4.3a1,1,0,0,1-1,1h-71a1,1,0,0,1-1-1v-1.3H95.9a3,3,0,0,0,3-3V38.62h1.2a1,1,0,0,1,1,1Z"/></svg>