<svg id="b4a7c2a1-21f7-4885-aece-3fdb7c9bbd20" data-name="expanded" xmlns="http://www.w3.org/2000/svg" viewBox="0 0 125 125"><title>Amnesty Icons</title><path d="M84.62,53.76a6,6,0,1,1,6-6A6,6,0,0,1,84.62,53.76Zm0-9.95a4,4,0,1,0,4,4A4,4,0,0,0,84.62,43.81Z"/><path d="M71.88,30.11a8.77,8.77,0,1,1,8.76-8.77A8.78,8.78,0,0,1,71.88,30.11Zm0-15.55a6.78,6.78,0,1,0,6.78,6.78A6.79,6.79,0,0,0,71.88,14.56Z"/><path d="M97.25,71.39a3.52,3.52,0,0,1,2.64.56,2.53,2.53,0,0,1,.42.38L81.67,75.78s0-.09,0-.14a.31.31,0,0,1,0-.08.11.11,0,0,1,0,0,2.5,2.5,0,0,0-.07-.26,5.53,5.53,0,0,0-.28-.9ZM86.33,70.21a2.87,2.87,0,0,1,2.46.73l-8.56,1.59a7.88,7.88,0,0,0-.84-.89l.09-.16ZM71.56,60a7.1,7.1,0,0,1,7.1,7.1,7,7,0,0,1-.92,3.46,7.12,7.12,0,0,0-4.39-.6L65.9,71.32A7.08,7.08,0,0,1,71.56,60ZM12.93,86.4l4.93,0,12.2,0a5.87,5.87,0,0,1,3.39,1.11L48.27,98.15a11.58,11.58,0,0,0,8.89,2l45.26-8.39a9.9,9.9,0,0,0,8-8.55,9.69,9.69,0,0,0-5.59-14.75,9.44,9.44,0,0,0-6.95-3.05,9.13,9.13,0,0,0-1.73.16l-3.74.69a8.79,8.79,0,0,0-5.58-2,8.69,8.69,0,0,0-1.61.15l-4.78.88A9.09,9.09,0,0,0,71.89,58a5.43,5.43,0,0,0-3,.83c-6,3.59-6.64,6.48-6.4,9.07L56.79,69,46.54,61.67a13.87,13.87,0,0,0-8-2.59L21,58.89l-5,0v0a6,6,0,0,0,6,5.95h0L38.53,65a7.92,7.92,0,0,1,4.55,1.48l10.36,7.38a5.64,5.64,0,0,0,4.31,1l8.13-1.51h0l7.83-1.45a5.15,5.15,0,0,1,4.42,1.3l0,0a5.1,5.1,0,0,1,1,1.19.3.3,0,0,1,0,.08,3.45,3.45,0,0,1,.3.61,5.13,5.13,0,0,1,.26.87s0,.07,0,.11a4.27,4.27,0,0,1,.08.94v0a4.92,4.92,0,0,1-.11.93s0,.06,0,.1a5.39,5.39,0,0,1-.28.86l0,.09a5.37,5.37,0,0,1-.45.81l0,0A5.11,5.11,0,0,1,75.58,82L57.39,85.36a1,1,0,0,0-.79,1.16,1,1,0,0,0,1,.81l.18,0,18.19-3.37a7,7,0,0,0,3.9-2.15l19.84-3.68a4.12,4.12,0,0,1,4.75,2.76,4,4,0,0,1-.75,3.64,4.21,4.21,0,0,1-2.51,1.41L56.08,94.28a5.79,5.79,0,0,1-4.35-1L36.91,82.74a11.84,11.84,0,0,0-6.82-2.22l-11.21,0h0a5.92,5.92,0,0,0-5.93,5.92Zm92.92-7.22a6.2,6.2,0,0,0-6.53-3l-18,3.34.06-.18c.06-.19.12-.37.17-.56s0-.09,0-.13c.06-.28.12-.56.16-.84l19.94-3.7a3.78,3.78,0,0,1,4.4,3A3.74,3.74,0,0,1,105.85,79.18Z"/></svg>