<svg id="b2a2f1ba-eb48-474d-bae2-c415fbf98e49" data-name="expanded" xmlns="http://www.w3.org/2000/svg" viewBox="0 0 125 125"><title>Amnesty Icons</title><path d="M31,87.51h0l-10,0a1,1,0,0,1-.71-.29,1,1,0,0,1-.29-.71l0-10a1,1,0,0,1,1-1h0l10,0a1,1,0,0,1,.7.29,1,1,0,0,1,.3.71l0,10A1,1,0,0,1,31,87.51Zm-9-2h8l0-8H22Z"/><path d="M29.56,71.5H22.42a1,1,0,0,1-1-.9L17.71,32.07A1,1,0,0,1,18,31.3a1,1,0,0,1,.74-.33H33.27a1,1,0,0,1,.74.33,1,1,0,0,1,.26.77L30.56,70.59A1,1,0,0,1,29.56,71.5Zm-6.24-2h5.34L32.17,33H19.81Z"/><path d="M103,94.44h0l-12,0a1,1,0,0,1-.7-.29,1,1,0,0,1-.3-.71l0-12a1,1,0,0,1,1-1h0l12,0a1,1,0,0,1,1,1l0,12A1,1,0,0,1,103,94.44Zm-11-2,10,0v-10l-10,0Z"/><path d="M101.57,76.4H92.46a1,1,0,0,1-1-.9L86.74,26.41a1,1,0,0,1,.25-.77,1,1,0,0,1,.74-.33h0l18.56,0a1,1,0,0,1,.74.32,1,1,0,0,1,.26.77L102.56,75.5A1,1,0,0,1,101.57,76.4Zm-8.2-2h7.29l4.53-47.08H88.84Z"/><path d="M71,112.44l-22,0a2,2,0,0,1-2-2l0-22a2,2,0,0,1,2-2l22,0a2,2,0,0,1,2,2l0,22A2,2,0,0,1,71,112.44Zm-18-6,14,0,0-14-14,0Z"/><path d="M69.44,78.44H51a1,1,0,0,1-1-.9l-6-62.78a2,2,0,0,1,2-2.19H74.49a2,2,0,0,1,2,2.19l-6,62.79A1,1,0,0,1,69.44,78.44Zm-13.94-6h9.4L70,19.65a1,1,0,0,0-1-1.09H51.41a1,1,0,0,0-1,1.09Z"/></svg>