<svg width="98" height="121" viewBox="0 0 98 121" fill="none" xmlns="http://www.w3.org/2000/svg">
<path d="M91.8325 104.567C91.8325 101.498 94.3263 99.0104 97.4031 99.0104V87.897C94.3263 87.897 91.8325 85.4095 91.8325 82.3403C91.8325 79.2712 94.3263 76.7836 97.4031 76.7836V65.6702C94.3263 65.6702 91.8325 63.1827 91.8325 60.1135C91.8325 57.0444 94.3263 54.5568 97.4031 54.5568V43.4434C94.3263 43.4434 91.8325 40.9559 91.8325 37.8867C91.8325 34.8176 94.3263 32.33 97.4031 32.33V21.2166C94.3263 21.2166 91.8325 18.7291 91.8325 15.6599C91.8325 12.5908 94.3263 10.1032 97.4031 10.1032V0.842041H88.1188C88.1188 3.91119 85.6251 6.39874 82.5482 6.39874C79.4714 6.39874 76.9777 3.91119 76.9777 0.842041H65.8365C65.8365 3.91119 63.3428 6.39874 60.266 6.39874C57.1892 6.39874 54.6954 3.91119 54.6954 0.842041H43.5543C43.5543 3.91119 41.0605 6.39874 37.9837 6.39874C34.9069 6.39874 32.4131 3.91119 32.4131 0.842041H21.272C21.272 3.91119 18.7782 6.39874 15.7014 6.39874C12.6246 6.39874 10.1308 3.91119 10.1308 0.842041H0.846558V10.1032C3.92337 10.1032 6.41713 12.5908 6.41713 15.6599C6.41713 18.7291 3.92337 21.2166 0.846558 21.2166V32.33C3.92337 32.33 6.41713 34.8176 6.41713 37.8867C6.41713 40.9559 3.92337 43.4434 0.846558 43.4434V54.5568C3.92337 54.5568 6.41713 57.0444 6.41713 60.1135C6.41713 63.1827 3.92337 65.6702 0.846558 65.6702V76.7836C3.92337 76.7836 6.41713 79.2712 6.41713 82.3403C6.41713 85.4095 3.92337 87.897 0.846558 87.897V99.0104C3.92337 99.0104 6.41713 101.498 6.41713 104.567C6.41713 107.636 3.92337 110.124 0.846558 110.124V119.385H10.1308C10.1308 116.316 12.6246 113.828 15.7014 113.828C18.7782 113.828 21.272 116.316 21.272 119.385H32.4131C32.4131 116.316 34.9069 113.828 37.9837 113.828C41.0605 113.828 43.5543 116.316 43.5543 119.385H54.6954C54.6954 116.316 57.1892 113.828 60.266 113.828C63.3428 113.828 65.8365 116.316 65.8365 119.385H76.9777C76.9777 116.316 79.4714 113.828 82.5482 113.828C85.6251 113.828 88.1188 116.316 88.1188 119.385H97.4031V110.124C94.3263 110.124 91.8325 107.636 91.8325 104.567Z" fill="white"/>
<g clip-path="url(#clip0)">
<path d="M91.2309 75.8042H6.91492V112.214H91.2309V75.8042Z" fill="white"/>
<path d="M17.4848 90.9365L18.1657 86.5752H18.1981L18.879 90.9365H17.4848ZM17.1119 84.5598L15.28 94.703H16.9336L17.2416 92.4563H19.1222L19.4302 94.703H21.0837L19.2518 84.5598H17.1119Z" fill="black"/>
<path d="M23.402 86.7735H23.4182L24.9745 94.703H25.8013L27.3414 86.7735H27.3738V94.703H28.8652V84.5598H26.6118L25.396 90.4905H25.3636L24.1639 84.5598H21.9105V94.703H23.402V86.7735Z" fill="black"/>
<path d="M34.1179 90.3583H34.1017L32.0104 84.5598H30.4216V94.703H31.9779V88.3594H31.9942L34.1827 94.703H35.6742V84.5598H34.1179V90.3583Z" fill="black"/>
<path d="M42.0127 93.1832H38.9488V90.2096H41.1535V88.6898H38.9488V86.0631H41.8182V84.5598H37.2303V94.703H42.0127V93.1832Z" fill="black"/>
<path d="M44.2986 86.9222C44.2986 86.2944 44.6067 85.931 45.1578 85.931C45.5469 85.931 46.0008 86.1788 46.0657 87.0543L47.6868 86.8726C47.5409 85.4354 46.7141 84.4111 45.32 84.4111C43.634 84.4111 42.6775 85.3197 42.6775 86.9387C42.6775 89.8462 46.1467 90.3748 46.1467 92.3903C46.1467 93.0015 45.7415 93.3154 45.1578 93.3154C44.6067 93.3154 44.2014 92.8033 44.1365 91.779L42.5154 92.0103C42.5802 93.5301 43.4881 94.8187 45.0768 94.8187C46.6817 94.8187 47.7841 93.8936 47.7841 92.2251C47.7679 89.4828 44.2986 88.6568 44.2986 86.9222Z" fill="black"/>
<path d="M49.7295 94.703H51.4479V86.0631H53.1015V84.5598H48.0759V86.0631H49.7295V94.703Z" fill="black"/>
<path d="M56.4736 88.4255H56.4574L55.2578 84.5598H53.507L55.582 90.4905V94.703H57.3004V90.4905L59.3593 84.5598H57.6246L56.4736 88.4255Z" fill="black"/>
<path d="M79.6558 96.0908C79.5423 96.0412 79.5261 95.6778 79.4613 95.6778C79.364 95.6778 79.3154 96.0082 79.1208 96.0577C78.9263 96.0908 78.6345 95.843 78.5534 95.909C78.4724 95.9751 78.7318 96.4377 78.2941 96.4377C78.1644 96.4377 78.0995 96.289 78.0995 96.1734V92.5885C78.0995 92.5885 78.1157 92.5885 78.3103 92.6381C78.44 92.6711 78.5697 92.7372 78.5697 92.9189C78.5697 93.018 78.5372 93.2163 78.6021 93.2493C78.6669 93.2824 78.7156 93.2163 78.748 93.1998C79.3478 92.7537 79.4937 93.5467 79.6234 93.5467C79.7369 93.5467 79.7207 93.0015 79.8828 93.0015C80.0125 92.952 81.2446 93.5632 81.2446 93.9597C81.2446 94.0423 81.0824 94.0588 81.0662 94.1414C81.05 94.257 81.358 94.3066 81.3094 94.5214C81.2932 94.6535 81.0014 94.8187 81.0824 94.9013C81.1635 94.9839 81.5526 94.8187 81.585 94.8187C81.6661 94.8187 81.6823 94.9509 81.6823 95.0004C81.6823 95.7108 80.0287 96.256 79.6558 96.0908ZM75.2463 96.669C75.149 96.5038 75.1976 96.2229 75.1004 96.2229C75.0517 96.2229 74.7924 96.6194 74.6465 96.6194C74.5006 96.6194 74.2574 96.3386 74.1601 96.3386C74.0953 96.3386 74.225 96.735 74.0953 96.9002C74.0142 97.0159 73.236 97.0985 73.236 96.9994V91.4156C73.236 91.1513 73.4306 91.0522 73.6089 91.0522H76.4946C76.8512 91.0522 76.9971 91.1678 76.9971 91.5478V96.5533C76.9971 96.7185 75.3111 96.7846 75.2463 96.669ZM76.9971 103.739C76.9971 104.086 76.8836 104.169 76.5918 104.103L73.5116 103.475C73.3333 103.442 73.236 103.326 73.236 103.128V97.4454C73.236 97.2967 73.7386 97.2802 73.8197 97.3463C73.9656 97.4784 73.9169 97.9575 74.0142 97.9575C74.1439 97.9575 74.4843 97.3793 74.6302 97.3793C74.9383 97.3793 75.149 97.561 75.2139 97.528C75.2787 97.4949 75.2787 97.2306 75.3598 97.1645C75.4732 97.082 75.8137 97.0819 75.992 97.0654C76.2838 97.0489 76.8188 96.9994 76.8188 96.9994C77.0295 96.9994 77.0133 97.148 77.0133 97.4619V103.739H76.9971ZM73.6738 87.2691C73.6738 85.0059 76.9647 83.7008 77.1917 82.5609C77.4348 82.7922 77.4673 83.1722 77.4673 83.5026C77.4673 84.8737 75.1166 87.203 75.1166 88.8715C75.1166 89.0533 75.1328 89.1028 75.1328 89.2185C75.1328 89.3837 75.068 89.4167 75.0355 89.4167C74.6465 89.4002 73.6738 88.6238 73.6738 87.2691ZM71.8581 101.427C71.5987 101.427 71.4366 100.898 71.3717 100.915C71.2907 100.931 71.3879 101.361 71.2907 101.427C71.2096 101.509 69.5074 100.7 69.3777 100.568C69.2642 100.452 69.4263 100.287 69.3777 100.171C69.3453 100.072 69.0859 100.105 69.0048 100.056C68.94 99.9895 69.0859 99.6921 68.9886 99.626C68.9076 99.5765 68.7292 99.9234 68.6158 99.7582C68.5671 99.6921 68.5509 99.5765 68.5509 99.4278C68.5509 98.4201 69.6047 98.0236 70.3018 97.7758C70.5936 97.6767 70.4963 98.0566 70.5936 98.0731C70.7071 98.1062 70.7233 97.8914 70.853 97.8914C70.9502 97.8914 71.3231 98.0731 71.4041 98.0071C71.469 97.9575 71.2096 97.7097 71.2907 97.6106C71.3879 97.528 72.1337 97.3793 72.1337 97.5775V101.08C72.1337 101.46 71.8581 101.427 71.8581 101.427ZM81.9741 95.3804C82.1524 95.0665 82.1524 94.6866 82.2172 94.5379C82.3145 94.3727 82.6712 94.4057 82.6712 94.2901C82.6712 94.2405 82.4118 94.1744 82.3145 94.1084C82.12 93.9927 82.1848 93.398 82.0875 93.398C81.9416 93.398 81.7957 93.811 81.6498 93.6293C81.3905 93.2989 80.3367 92.6711 79.8504 92.4894C79.672 92.4233 79.98 91.8782 79.899 91.8286C79.8179 91.7791 79.6072 92.159 79.2992 92.0929C79.056 92.0434 79.1695 91.5973 79.0398 91.5973C78.9749 91.5973 78.7318 92.2251 78.5534 92.1755C78.3589 92.126 78.0995 92.0599 78.0995 92.0599V90.4244C78.0995 90.1436 77.9212 89.9288 77.678 89.9288H75.9434C75.457 89.9288 75.4895 89.5654 75.4895 89.4828C75.4895 87.3022 78.6021 86.9387 78.6021 84.0808C78.6021 82.8253 77.8239 81.9993 76.9323 81.2559C76.8836 81.2228 76.9323 81.4376 76.9323 81.5202C76.9323 82.8418 72.085 83.5356 72.085 86.6083C72.085 89.2845 74.6951 89.4002 74.6951 89.8132C74.6951 89.8958 74.533 89.9288 74.5168 89.9288H72.5227C72.312 89.9288 72.1337 90.061 72.1337 90.4244V92.0764C71.9391 92.1425 71.6797 91.8451 71.55 91.8451C71.4852 91.8451 71.5176 92.3573 71.4041 92.4233C71.3069 92.4729 69.4912 93.1337 69.3291 93.1502C69.0697 93.1998 69.1345 92.7372 68.9886 92.7372C68.8589 92.7372 68.8589 93.1998 68.5347 93.1998C68.3402 93.1998 68.1781 93.018 68.0321 93.018C67.9349 93.018 68.2429 93.398 68.2429 93.5136C68.2429 93.8275 67.6431 93.9432 67.6431 94.1579C67.6431 94.2736 68.2105 94.1084 68.2915 94.1084C68.5833 94.1084 68.5509 94.4553 68.6644 94.4553C68.7779 94.4553 68.8589 94.0588 68.9562 93.9927C69.1507 93.8771 69.3777 94.0753 69.475 94.0753C69.6371 94.0753 69.3453 93.6788 69.4912 93.6128C69.4912 93.6128 71.4528 92.7537 71.5825 92.8198C71.696 92.8859 71.6797 93.0841 71.8094 93.1502C71.9391 93.2163 72.1337 92.6877 72.1337 93.018V97.0489C71.9067 97.1976 71.4204 97.2802 71.161 97.2802C71.0313 97.2802 71.0961 96.8507 71.0151 96.8507C70.8854 96.8507 70.7557 97.2141 70.5611 97.2141C70.3828 97.2141 70.1234 96.7681 69.9451 96.7681C69.8316 96.7681 70.1559 97.3298 69.9613 97.4289C69.2156 97.8088 68.0484 98.1723 68.0484 99.3617C68.0484 99.6095 68.178 99.9069 68.1294 99.9895C68.0808 100.105 67.8214 100.336 67.8376 100.435C67.8376 100.535 68.3239 100.502 68.4212 100.65C68.4699 100.733 68.5023 101.096 68.5996 101.096C68.6806 101.096 68.8914 100.815 69.0697 100.915C69.6371 101.261 70.6098 101.641 71.0637 101.889C71.1772 101.955 71.1123 102.319 71.1772 102.352C71.3069 102.418 71.5663 102.005 71.9716 102.236C72.0526 102.269 72.1337 102.401 72.1337 102.55V103.888C72.1337 104.136 72.2471 104.202 72.3768 104.235L77.1755 105.21C77.1755 105.21 77.597 105.309 77.7429 105.309C77.905 105.309 78.1157 105.309 78.0995 104.896V101.84C78.0995 101.807 78.1319 101.741 78.1968 101.741C78.4724 101.741 78.3427 102.567 78.4075 102.567C78.5372 102.567 78.6183 102.005 78.7804 102.005C79.0074 102.005 79.1533 102.22 79.2505 102.17C79.3316 102.121 79.2019 101.856 79.2019 101.691C79.2019 101.542 79.6234 101.476 80.1422 101.278C80.5961 101.113 80.969 100.931 81.1149 100.931C81.2283 100.931 81.3094 101.245 81.4067 101.245C81.4877 101.245 81.5039 100.832 81.6823 100.832C81.8282 100.832 82.1524 101.063 82.2335 100.997C82.2983 100.948 82.0713 100.634 82.2497 100.502C82.3794 100.419 82.6874 100.221 82.6874 100.138C82.6874 100.089 82.0876 100.072 82.0551 100.072C81.9417 100.039 81.812 99.6756 81.7309 99.6756C81.6336 99.6756 81.6336 100.039 81.4877 100.155C81.358 100.254 81.0338 99.8077 80.8879 99.8077C80.8068 99.8077 80.9852 100.138 80.9852 100.402C80.9852 100.667 79.4289 101.179 79.2181 101.179C78.8939 101.179 78.8777 100.766 78.8128 100.766C78.7156 100.766 78.7155 101.261 78.3589 101.261C78.1806 101.261 78.1157 101.129 78.1157 101.03V97.082C78.1157 96.9663 78.1481 96.8176 78.3589 96.8011C78.6183 96.7846 78.6345 97.3958 78.7318 97.3958C78.9101 97.3958 79.0074 96.7846 79.3478 96.7846C79.6072 96.7846 79.8179 97.148 79.98 97.148C80.0935 97.148 79.7855 96.7681 79.7855 96.5864C79.7693 96.4212 81.358 96.4872 81.9741 95.3804Z" fill="black"/>
<path d="M16.5446 97.3628H15.5071V103.475H16.5446V97.3628Z" fill="black"/>
<path d="M17.4362 103.475V97.3628H18.3926L19.6409 100.848H19.6571V97.3628H20.5974V103.475H19.6895L18.3764 99.6591H18.3602V103.475H17.4362Z" fill="black"/>
<path d="M22.0888 98.2714H21.0837V97.3628H24.1153V98.2714H23.1102V103.475H22.0888V98.2714Z" fill="black"/>
<path d="M24.6179 103.475V97.3628H27.3739V98.2714H25.6392V99.8408H26.9686V100.766H25.6392V102.55H27.4874V103.475H24.6179Z" fill="black"/>
<path d="M29.1895 103.475H28.152V97.3628H29.5948C30.1784 97.3628 30.5999 97.495 30.8917 97.7758C31.1835 98.0566 31.3294 98.5192 31.3294 99.1635C31.3294 99.4113 31.3132 99.626 31.2646 99.7912C31.216 99.9729 31.1673 100.122 31.1025 100.237C31.0376 100.353 30.9566 100.452 30.8755 100.535C30.7945 100.601 30.6972 100.667 30.6161 100.7L31.4916 103.475H30.4378L29.7083 100.948C29.6434 100.964 29.5624 100.964 29.4651 100.964C29.3678 100.964 29.2706 100.964 29.1733 100.964V103.475H29.1895ZM29.1085 100.105H29.4813C29.6272 100.105 29.7407 100.089 29.838 100.056C29.9352 100.023 30.0163 99.9729 30.0812 99.9069C30.146 99.8408 30.1946 99.7417 30.2108 99.6095C30.2433 99.4939 30.2595 99.3287 30.2595 99.1635C30.2595 98.8 30.1946 98.5522 30.0812 98.4201C29.9677 98.2879 29.7731 98.2218 29.4975 98.2218H29.1247V100.105H29.1085Z" fill="black"/>
<path d="M32.1562 103.475V97.3628H33.1127L34.3772 100.848H34.3934V97.3628H35.3175V103.475H34.4258L33.1127 99.6591H33.0965V103.475H32.1562Z" fill="black"/>
<path d="M36.8901 103.475H35.885L36.9874 97.3628H38.2681L39.3704 103.475H38.3815L38.2032 102.121H37.0684L36.8901 103.475ZM37.2143 101.195H38.0411L37.6358 98.5687H37.6196L37.2143 101.195Z" fill="black"/>
<path d="M40.3107 98.2714H39.3055V97.3628H42.3371V98.2714H41.332V103.475H40.3107V98.2714Z" fill="black"/>
<path d="M44.023 97.3628H42.9855V103.475H44.023V97.3628Z" fill="black"/>
<path d="M44.8336 98.8331C44.8336 98.6184 44.866 98.4201 44.9309 98.2219C44.9957 98.0237 45.093 97.8585 45.2227 97.7263C45.3524 97.5776 45.5145 97.4785 45.7091 97.3959C45.9036 97.3133 46.1468 97.2803 46.4062 97.2803C46.6818 97.2803 46.9087 97.3133 47.1033 97.3959C47.2978 97.4785 47.46 97.5942 47.5896 97.7263C47.7193 97.875 47.8166 98.0402 47.8815 98.2219C47.9463 98.4201 47.9787 98.6184 47.9787 98.8331V101.988C47.9787 102.203 47.9463 102.401 47.8815 102.6C47.8166 102.798 47.7193 102.963 47.5896 103.095C47.46 103.244 47.2978 103.343 47.1033 103.426C46.9087 103.508 46.6656 103.541 46.4062 103.541C46.1306 103.541 45.9036 103.492 45.7091 103.426C45.5145 103.343 45.3524 103.227 45.2227 103.095C45.093 102.947 44.9957 102.781 44.9309 102.6C44.866 102.401 44.8336 102.203 44.8336 101.988V98.8331ZM45.855 101.972C45.855 102.203 45.8874 102.368 45.9685 102.484C46.0495 102.6 46.1954 102.649 46.4062 102.649C46.6169 102.649 46.7628 102.6 46.8439 102.484C46.925 102.368 46.9574 102.203 46.9574 101.972V98.8662C46.9574 98.6349 46.925 98.4697 46.8439 98.3541C46.7628 98.2384 46.6169 98.1889 46.4062 98.1889C46.1954 98.1889 46.0495 98.2384 45.9685 98.3541C45.8874 98.4697 45.855 98.6349 45.855 98.8662V101.972Z" fill="black"/>
<path d="M48.6919 103.475V97.3628H49.6484L50.8967 100.848H50.9129V97.3628H51.8531V103.475H50.9453L49.6322 99.6591H49.6159V103.475H48.6919Z" fill="black"/>
<path d="M53.4258 103.475H52.4207L53.523 97.3628H54.8038L55.9062 103.475H54.9172L54.7389 102.121H53.6041L53.4258 103.475ZM53.75 101.195H54.5768L54.1715 98.5687H54.1553L53.75 101.195Z" fill="black"/>
<path d="M56.4249 103.475V97.3628H57.4625V102.55H59.0836V103.475H56.4249Z" fill="black"/>
</g>
<path d="M21.7594 17.5621H24.2532L26.307 28.8088H26.3559L28.0429 17.5621H30.879L27.7739 35.2146H25.2312L23.0307 23.5522H22.9818L20.9281 35.2146H18.3853L15.0358 17.5621H17.8719L19.7301 28.8088H19.779L21.7594 17.5621ZM35.8421 25.4837H36.9179C37.3253 25.4837 37.6676 25.443 37.9447 25.3615C38.2381 25.28 38.4745 25.1333 38.6538 24.9214C38.8331 24.7095 38.9635 24.4324 39.045 24.0901C39.1265 23.7315 39.1672 23.2914 39.1672 22.7698C39.1672 21.7266 38.9961 21.0176 38.6538 20.6427C38.3115 20.2515 37.7328 20.0559 36.9179 20.0559H35.8421V25.4837ZM35.8421 35.2146H32.8103V17.5621H37.0646C38.7597 17.5621 40.0392 17.9614 40.9031 18.7601C41.767 19.5588 42.1989 20.8954 42.1989 22.7698C42.1989 23.487 42.1337 24.0982 42.0034 24.6035C41.8893 25.1088 41.7263 25.5408 41.5144 25.8993C41.3188 26.2416 41.0906 26.5187 40.8298 26.7306C40.5853 26.9425 40.3326 27.1055 40.0718 27.2196L42.639 35.2146H39.5584L37.4068 27.9042C37.2113 27.9368 36.9668 27.9613 36.6734 27.9776C36.3963 27.9776 36.1192 27.9776 35.8421 27.9776V35.2146ZM45.4507 35.2146V17.5621H48.4825V35.2146H45.4507ZM53.6002 20.2026H50.6663V17.5621H59.5659V20.2026H56.632V35.2146H53.6002V20.2026ZM61.3427 35.2146V17.5621H69.4599V20.2026H64.3744V24.7502H68.2864V27.3908H64.3744V32.5741H69.8022V35.2146H61.3427Z" fill="black"/>
<path d="M16.1402 55.2185V37.566H24.5998V40.2065H19.172V44.7541H23.2306V47.3947H19.172V55.2185H16.1402ZM30.0358 50.8665C30.0358 51.5348 30.1499 52.0319 30.3781 52.3579C30.6062 52.6676 31.03 52.8225 31.6494 52.8225C32.2688 52.8225 32.6926 52.6676 32.9208 52.3579C33.149 52.0319 33.2631 51.5348 33.2631 50.8665V41.918C33.2631 41.2497 33.149 40.7607 32.9208 40.451C32.6926 40.125 32.2688 39.962 31.6494 39.962C31.03 39.962 30.6062 40.125 30.3781 40.451C30.1499 40.7607 30.0358 41.2497 30.0358 41.918V50.8665ZM27.004 41.8446C27.004 41.2252 27.0937 40.6385 27.273 40.0843C27.4686 39.5301 27.7538 39.0492 28.1287 38.6418C28.5199 38.2343 29.0007 37.9164 29.5712 37.6882C30.158 37.4437 30.8507 37.3215 31.6494 37.3215C32.4481 37.3215 33.1327 37.4437 33.7032 37.6882C34.29 37.9164 34.7708 38.2343 35.1457 38.6418C35.5369 39.0492 35.8221 39.5301 36.0014 40.0843C36.197 40.6385 36.2948 41.2252 36.2948 41.8446V50.9398C36.2948 51.5592 36.197 52.146 36.0014 52.7002C35.8221 53.2544 35.5369 53.7352 35.1457 54.1427C34.7708 54.5502 34.29 54.8762 33.7032 55.1207C33.1327 55.3489 32.4481 55.463 31.6494 55.463C30.8507 55.463 30.158 55.3489 29.5712 55.1207C29.0007 54.8762 28.5199 54.5502 28.1287 54.1427C27.7538 53.7352 27.4686 53.2544 27.273 52.7002C27.0937 52.146 27.004 51.5592 27.004 50.9398V41.8446ZM42.2605 45.4876H43.3363C43.7438 45.4876 44.0861 45.4469 44.3632 45.3654C44.6566 45.2839 44.8929 45.1372 45.0722 44.9253C45.2515 44.7134 45.3819 44.4363 45.4634 44.094C45.5449 43.7354 45.5856 43.2953 45.5856 42.7737C45.5856 41.7305 45.4145 41.0215 45.0722 40.6466C44.7299 40.2554 44.1513 40.0598 43.3363 40.0598H42.2605V45.4876ZM42.2605 55.2185H39.2288V37.566H43.483C45.1781 37.566 46.4577 37.9653 47.3215 38.764C48.1854 39.5627 48.6174 40.8993 48.6174 42.7737C48.6174 43.4909 48.5522 44.1021 48.4218 44.6074C48.3077 45.1127 48.1447 45.5447 47.9328 45.9033C47.7372 46.2455 47.509 46.5226 47.2482 46.7345C47.0037 46.9464 46.7511 47.1094 46.4903 47.2235L49.0575 55.2185H45.9768L43.8253 47.9081C43.6297 47.9407 43.3852 47.9652 43.0918 47.9815C42.8147 47.9815 42.5376 47.9815 42.2605 47.9815V55.2185Z" fill="black"/>
<path d="M19.3532 65.4918H20.429C20.8365 65.4918 21.1788 65.451 21.4559 65.3695C21.7493 65.288 21.9856 65.1413 22.1649 64.9294C22.3442 64.7175 22.4746 64.4404 22.5561 64.0981C22.6376 63.7395 22.6783 63.2995 22.6783 62.7779C22.6783 61.7347 22.5072 61.0257 22.1649 60.6508C21.8226 60.2596 21.244 60.064 20.429 60.064H19.3532V65.4918ZM19.3532 75.2227H16.3215V57.5701H20.5757C22.2709 57.5701 23.5504 57.9695 24.4143 58.7682C25.2781 59.5668 25.7101 60.9034 25.7101 62.7779C25.7101 63.4951 25.6449 64.1063 25.5145 64.6116C25.4004 65.1169 25.2374 65.5488 25.0255 65.9074C24.8299 66.2497 24.6017 66.5268 24.3409 66.7387C24.0964 66.9506 23.8438 67.1136 23.583 67.2277L26.1502 75.2227H23.0695L20.918 67.9123C20.7224 67.9449 20.4779 67.9693 20.1845 67.9856C19.9074 67.9856 19.6303 67.9856 19.3532 67.9856V75.2227ZM28.9619 75.2227V57.5701H31.9936V75.2227H28.9619ZM39.5319 66.2741H44.4951V75.2227H43.0281L42.4658 73.9024C42.0094 74.4403 41.5612 74.8396 41.1211 75.1004C40.6973 75.3449 40.1268 75.4672 39.4096 75.4672C38.2035 75.4672 37.2255 75.0678 36.4757 74.2691C35.7259 73.4704 35.351 72.3621 35.351 70.944V61.8488C35.351 61.2294 35.4407 60.6426 35.62 60.0884C35.8156 59.5342 36.0926 59.0534 36.4512 58.6459C36.8261 58.2384 37.2907 57.9206 37.8449 57.6924C38.399 57.4479 39.051 57.3256 39.8008 57.3256C40.5506 57.3256 41.2107 57.456 41.7812 57.7168C42.3517 57.9776 42.8244 58.3281 43.1993 58.7682C43.5905 59.2082 43.8757 59.7217 44.055 60.3085C44.2506 60.8953 44.3484 61.5146 44.3484 62.1666V63.2913H41.4634C41.4634 62.6393 41.4308 62.1014 41.3656 61.6776C41.3004 61.2375 41.1944 60.8953 41.0477 60.6508C40.901 60.39 40.7136 60.2107 40.4854 60.1129C40.2735 60.0151 40.0209 59.9662 39.7275 59.9662C39.3526 59.9662 39.0347 60.1047 38.7739 60.3818C38.5131 60.6426 38.3827 61.1479 38.3827 61.8977V70.9684C38.3827 71.5389 38.4887 71.9953 38.7006 72.3376C38.9125 72.6636 39.2792 72.8266 39.8008 72.8266C40.4202 72.8266 40.8521 72.6392 41.0966 72.2643C41.3411 71.8894 41.4634 71.2618 41.4634 70.3817V68.6702H39.5319V66.2741ZM47.5758 75.2227V57.5701H50.6075V64.7583H53.8348V57.5701H56.8666V75.2227H53.8348V67.3988H50.6075V75.2227H47.5758ZM61.5609 60.2107H58.6269V57.5701H67.5265V60.2107H64.5926V75.2227H61.5609V60.2107ZM74.8289 61.9221C74.7963 61.5472 74.723 61.2375 74.6089 60.9931C74.5111 60.7323 74.3807 60.5285 74.2177 60.3818C74.071 60.2351 73.908 60.1292 73.7287 60.064C73.5494 59.9988 73.3782 59.9662 73.2152 59.9662C72.7263 59.9662 72.3514 60.121 72.0906 60.4307C71.8298 60.7241 71.6994 61.1479 71.6994 61.7021C71.6994 62.2074 71.8461 62.6719 72.1395 63.0957C72.4492 63.5195 72.8322 63.9433 73.2886 64.3671C73.745 64.7909 74.2421 65.2228 74.78 65.6629C75.3179 66.0867 75.815 66.5594 76.2714 67.081C76.7278 67.6026 77.1027 68.1812 77.3961 68.8169C77.7058 69.4363 77.8606 70.1453 77.8606 70.944C77.8606 71.6775 77.7384 72.3295 77.4939 72.9C77.2657 73.4541 76.9397 73.9268 76.5159 74.318C76.1084 74.6929 75.6031 74.9782 75.0001 75.1738C74.4133 75.3694 73.7694 75.4672 73.0685 75.4672C72.3677 75.4672 71.7401 75.3368 71.1859 75.076C70.6317 74.8152 70.1591 74.4647 69.7679 74.0246C69.393 73.5682 69.0996 73.0467 68.8877 72.4599C68.6758 71.8731 68.5535 71.2455 68.5209 70.5773L71.406 70.1616C71.4712 71.0581 71.6668 71.7264 71.9928 72.1665C72.3188 72.6066 72.7263 72.8266 73.2152 72.8266C73.7368 72.8266 74.1606 72.6881 74.4866 72.411C74.8126 72.1339 74.9756 71.7345 74.9756 71.2129C74.9756 70.6262 74.8208 70.1046 74.5111 69.6482C74.2177 69.1918 73.8428 68.7517 73.3864 68.3279C72.93 67.9041 72.4329 67.4803 71.895 67.0565C71.3571 66.6327 70.8599 66.1682 70.4036 65.6629C69.9472 65.1576 69.5641 64.5871 69.2544 63.9514C68.961 63.3158 68.8143 62.5741 68.8143 61.7265C68.8143 60.3085 69.2218 59.2245 70.0368 58.4748C70.8518 57.7087 72.0091 57.3256 73.5086 57.3256C74.128 57.3256 74.6822 57.4316 75.1712 57.6435C75.6602 57.8554 76.0758 58.1569 76.4181 58.5481C76.7767 58.923 77.062 59.3712 77.2739 59.8928C77.5021 60.4144 77.6488 60.9849 77.7139 61.6043L74.8289 61.9221Z" fill="black"/>
<defs>
<clipPath id="clip0">
<rect width="84.4619" height="36.6742" fill="white" transform="translate(6.76917 75.6721)"/>
</clipPath>
</defs>
</svg>
