<svg width="26" height="26" viewBox="0 0 26 26" fill="none" xmlns="http://www.w3.org/2000/svg">
<path d="M22.9048 0H3.09524C1.38667 0 0 1.38667 0 3.09524V22.9048C0 24.6133 1.38667 26 3.09524 26H22.9048C24.6133 26 26 24.6133 26 22.9048V3.09524C26 1.38667 24.6133 0 22.9048 0ZM16.4976 8.66667C16.6152 8.66667 16.7143 8.77191 16.7143 8.89571V11.5329C16.7143 11.6567 16.6152 11.7619 16.4976 11.7619H13.619C13.619 11.7619 13.619 16.7019 13.619 16.8319C13.619 16.9557 13.7305 18.4971 15.34 18.4971C16.671 18.4971 17.6119 17.7914 17.6243 17.7852C17.6552 17.7605 17.6986 17.7481 17.7357 17.7481C17.7729 17.7481 17.81 17.7605 17.841 17.779C17.909 17.8162 17.9524 17.8905 17.9524 17.971V20.2614C17.9524 20.3233 17.9276 20.3852 17.8781 20.4224C17.8224 20.4781 16.2933 21.6667 13.1548 21.6667C9.39095 21.6667 9.28572 17.3952 9.28572 16.9062V11.7619H7.64524C7.52762 11.7619 7.42857 11.669 7.42857 11.5452V9.33524C7.42857 9.24238 7.48429 9.16191 7.56476 9.13095C7.6019 9.11857 10.9695 7.77524 10.9695 4.54381C10.9695 4.42 11.0624 4.32095 11.18 4.32095L13.4024 4.33333C13.52 4.33333 13.619 4.43238 13.619 4.55V8.66667H16.4976Z" fill="white"/>
</svg>
