<svg width="26" height="21" viewBox="0 0 26 21" fill="none" xmlns="http://www.w3.org/2000/svg">
<path d="M25.8555 2.57422C24.9141 2.99219 23.9023 3.27344 22.8398 3.40234C23.9219 2.75 24.7578 1.72266 25.1484 0.496094C24.1328 1.09766 23.0078 1.53516 21.8125 1.76953C20.8555 0.75 19.4922 0.113281 17.9805 0.113281C15.082 0.113281 12.7305 2.46484 12.7305 5.36328C12.7305 5.77344 12.7773 6.17578 12.8672 6.55859C8.50391 6.33984 4.63672 4.24609 2.04688 1.07031C1.59375 1.84766 1.33594 2.75 1.33594 3.71484C1.33594 5.53516 2.26172 7.14062 3.67188 8.08203C2.80859 8.05469 2 7.82031 1.29297 7.42578C1.29297 7.44922 1.29297 7.46875 1.29297 7.49219C1.29297 10.0352 3.10156 12.1562 5.50391 12.6406C5.0625 12.7617 4.60156 12.8242 4.12109 12.8242C3.78125 12.8242 3.45312 12.793 3.13281 12.7305C3.80078 14.8125 5.73828 16.3359 8.03516 16.375C6.24219 17.7852 3.97656 18.6211 1.51562 18.6211C1.08984 18.6211 0.675781 18.5977 0.265625 18.5508C2.58594 20.0391 5.34766 20.9062 8.3125 20.9062C17.9688 20.9062 23.25 12.9062 23.25 5.97266C23.25 5.74219 23.2461 5.51563 23.2344 5.28906C24.2617 4.55469 25.1523 3.62891 25.8555 2.57422Z" fill="white"/>
</svg>
