<svg width="91" height="110" viewBox="0 0 91 110" fill="none" xmlns="http://www.w3.org/2000/svg">
<path d="M83.5413 95C83.5413 92.2383 85.7852 90 88.5538 90V80C85.7852 80 83.5413 77.7617 83.5413 75C83.5413 72.2383 85.7852 70 88.5538 70V60C85.7852 60 83.5413 57.7617 83.5413 55C83.5413 52.2383 85.7852 50 88.5538 50V40C85.7852 40 83.5413 37.7617 83.5413 35C83.5413 32.2383 85.7852 30 88.5538 30V20C85.7852 20 83.5413 17.7617 83.5413 15C83.5413 12.2383 85.7852 10 88.5538 10V1.66666H80.1997C80.1997 4.42833 77.9557 6.66666 75.1872 6.66666C72.4186 6.66666 70.1747 4.42833 70.1747 1.66666H60.1497C60.1497 4.42833 57.9058 6.66666 55.1373 6.66666C52.3687 6.66666 50.1248 4.42833 50.1248 1.66666H40.0998C40.0998 4.42833 37.8559 6.66666 35.0873 6.66666C32.3188 6.66666 30.0749 4.42833 30.0749 1.66666H20.0499C20.0499 4.42833 17.806 6.66666 15.0374 6.66666C12.2689 6.66666 10.025 4.42833 10.025 1.66666H1.67082V10C4.43938 10 6.6833 12.2383 6.6833 15C6.6833 17.7617 4.43938 20 1.67082 20V30C4.43938 30 6.6833 32.2383 6.6833 35C6.6833 37.7617 4.43938 40 1.67082 40V50C4.43938 50 6.6833 52.2383 6.6833 55C6.6833 57.7617 4.43938 60 1.67082 60V70C4.43938 70 6.6833 72.2383 6.6833 75C6.6833 77.7617 4.43938 80 1.67082 80V90C4.43938 90 6.6833 92.2383 6.6833 95C6.6833 97.7617 4.43938 100 1.67082 100V108.333H10.025C10.025 105.572 12.2689 103.333 15.0374 103.333C17.806 103.333 20.0499 105.572 20.0499 108.333H30.0749C30.0749 105.572 32.3188 103.333 35.0873 103.333C37.8559 103.333 40.0998 105.572 40.0998 108.333H50.1248C50.1248 105.572 52.3687 103.333 55.1373 103.333C57.9058 103.333 60.1497 105.572 60.1497 108.333H70.1747C70.1747 105.572 72.4186 103.333 75.1872 103.333C77.9557 103.333 80.1997 105.572 80.1997 108.333H88.5538V100C85.7852 100 83.5413 97.7617 83.5413 95Z" fill="#FFFF00"/>
<path d="M83 69.1189H7.13128V101.881H83V69.1189Z" fill="#FFFF00"/>
<path d="M16.6422 82.7351L17.2549 78.8108H17.2841L17.8967 82.7351H16.6422ZM16.3067 76.9973L14.6584 86.1243H16.1463L16.4234 84.1027H18.1156L18.3927 86.1243H19.8806L18.2323 76.9973H16.3067Z" fill="black"/>
<path d="M21.9666 78.9892H21.9812L23.3816 86.1243H24.1255L25.5113 78.9892H25.5405V86.1243H26.8825V76.9973H24.8549L23.7609 82.3338H23.7317L22.6522 76.9973H20.6246V86.1243H21.9666V78.9892Z" fill="black"/>
<path d="M31.6088 82.2149H31.5943L29.7125 76.9973H28.2829V86.1243H29.6833V80.4162H29.6979L31.6672 86.1243H33.0092V76.9973H31.6088V82.2149Z" fill="black"/>
<path d="M38.7129 84.7567H35.9558V82.0811H37.9397V80.7135H35.9558V78.35H38.5378V76.9973H34.4096V86.1243H38.7129V84.7567Z" fill="black"/>
<path d="M40.7696 79.123C40.7696 78.5581 41.0468 78.2311 41.5428 78.2311C41.8929 78.2311 42.3013 78.454 42.3597 79.2419L43.8184 79.0784C43.6871 77.7851 42.9431 76.8635 41.6886 76.8635C40.1716 76.8635 39.3109 77.6811 39.3109 79.1378C39.3109 81.754 42.4326 82.2297 42.4326 84.0432C42.4326 84.5932 42.0679 84.8757 41.5428 84.8757C41.0468 84.8757 40.6821 84.4149 40.6238 83.4932L39.165 83.7013C39.2234 85.0689 40.0403 86.2284 41.4698 86.2284C42.914 86.2284 43.9059 85.3959 43.9059 83.8946C43.8913 81.427 40.7696 80.6838 40.7696 79.123Z" fill="black"/>
<path d="M45.6565 86.1243H47.2027V78.35H48.6906V76.9973H44.1685V78.35H45.6565V86.1243Z" fill="black"/>
<path d="M51.7248 80.4757H51.7102L50.6308 76.9973H49.0553L50.9225 82.3338V86.1243H52.4687V82.3338L54.3213 76.9973H52.7605L51.7248 80.4757Z" fill="black"/>
<path d="M72.5847 87.373C72.4825 87.3284 72.468 87.0013 72.4096 87.0013C72.3221 87.0013 72.2783 87.2986 72.1033 87.3432C71.9282 87.373 71.6656 87.15 71.5927 87.2095C71.5198 87.2689 71.7532 87.6851 71.3593 87.6851C71.2426 87.6851 71.1843 87.5513 71.1843 87.4473V84.2216C71.1843 84.2216 71.1989 84.2216 71.3739 84.2662C71.4906 84.2959 71.6073 84.3554 71.6073 84.5189C71.6073 84.6081 71.5781 84.7865 71.6365 84.8162C71.6948 84.8459 71.7386 84.7865 71.7678 84.7716C72.3075 84.3703 72.4388 85.0838 72.5555 85.0838C72.6576 85.0838 72.643 84.5932 72.7889 84.5932C72.9056 84.5486 74.0142 85.0986 74.0142 85.4554C74.0142 85.5297 73.8683 85.5446 73.8538 85.6189C73.8392 85.723 74.1163 85.7676 74.0726 85.9608C74.058 86.0797 73.7954 86.2284 73.8684 86.3027C73.9413 86.377 74.2914 86.2284 74.3206 86.2284C74.3935 86.2284 74.4081 86.3473 74.4081 86.3919C74.4081 87.0311 72.9202 87.5216 72.5847 87.373ZM68.6169 87.8932C68.5294 87.7446 68.5731 87.4919 68.4856 87.4919C68.4418 87.4919 68.2084 87.8486 68.0772 87.8486C67.9459 87.8486 67.7271 87.5959 67.6395 87.5959C67.5812 87.5959 67.6979 87.9527 67.5812 88.1013C67.5082 88.2054 66.8081 88.2797 66.8081 88.1905V83.1662C66.8081 82.9284 66.9831 82.8392 67.1436 82.8392H69.7401C70.061 82.8392 70.1923 82.9432 70.1923 83.2851V87.7892C70.1923 87.9378 68.6752 87.9973 68.6169 87.8932ZM70.1923 94.2554C70.1923 94.5676 70.0902 94.6419 69.8276 94.5824L67.056 94.0176C66.8956 93.9878 66.8081 93.8838 66.8081 93.7054V88.5919C66.8081 88.4581 67.2603 88.4432 67.3332 88.5027C67.4645 88.6216 67.4207 89.0527 67.5082 89.0527C67.6249 89.0527 67.9313 88.5324 68.0626 88.5324C68.3397 88.5324 68.5294 88.6959 68.5877 88.6662C68.6461 88.6365 68.6461 88.3986 68.719 88.3392C68.8211 88.2649 69.1274 88.2649 69.2879 88.25C69.5505 88.2351 70.0319 88.1905 70.0319 88.1905C70.2215 88.1905 70.2069 88.3243 70.2069 88.6068V94.2554H70.1923ZM67.2019 79.4351C67.2019 77.3986 70.1632 76.2243 70.3674 75.1986C70.5862 75.4068 70.6154 75.7486 70.6154 76.0459C70.6154 77.2797 68.5002 79.3757 68.5002 80.877C68.5002 81.0405 68.5148 81.0851 68.5148 81.1892C68.5148 81.3378 68.4564 81.3676 68.4272 81.3676C68.0772 81.3527 67.2019 80.6541 67.2019 79.4351ZM65.5681 92.1743C65.3347 92.1743 65.1889 91.6986 65.1305 91.7135C65.0576 91.7284 65.1451 92.1149 65.0576 92.1743C64.9846 92.2486 63.453 91.5203 63.3363 91.4013C63.2341 91.2973 63.38 91.1486 63.3363 91.0446C63.3071 90.9554 63.0737 90.9851 63.0007 90.9405C62.9424 90.8811 63.0737 90.6135 62.9862 90.554C62.9132 90.5095 62.7528 90.8216 62.6506 90.673C62.6069 90.6135 62.5923 90.5095 62.5923 90.3757C62.5923 89.4689 63.5405 89.1122 64.1677 88.8892C64.4303 88.8 64.3428 89.1419 64.4303 89.1568C64.5324 89.1865 64.547 88.9932 64.6637 88.9932C64.7512 88.9932 65.0867 89.1568 65.1597 89.0973C65.218 89.0527 64.9846 88.8297 65.0576 88.7405C65.1451 88.6662 65.8161 88.5324 65.8161 88.7108V91.8622C65.8161 92.204 65.5681 92.1743 65.5681 92.1743ZM74.6707 86.7338C74.8311 86.4513 74.8311 86.1095 74.8895 85.9757C74.977 85.827 75.2979 85.8568 75.2979 85.7527C75.2979 85.7081 75.0645 85.6486 74.977 85.5892C74.8019 85.4851 74.8603 84.95 74.7728 84.95C74.6415 84.95 74.5102 85.3216 74.3789 85.1581C74.1455 84.8608 73.1973 84.2959 72.7597 84.1324C72.5992 84.073 72.8764 83.5824 72.8035 83.5378C72.7305 83.4932 72.5409 83.8351 72.2637 83.7757C72.0449 83.7311 72.147 83.3297 72.0303 83.3297C71.972 83.3297 71.7532 83.8946 71.5927 83.85C71.4177 83.8054 71.1843 83.7459 71.1843 83.7459V82.2743C71.1843 82.0216 71.0238 81.8284 70.805 81.8284H69.2441C68.8065 81.8284 68.8357 81.5013 68.8357 81.427C68.8357 79.4649 71.6365 79.1378 71.6365 76.5662C71.6365 75.4365 70.9363 74.6932 70.134 74.0243C70.0902 73.9946 70.134 74.1878 70.134 74.2622C70.134 75.4513 65.7724 76.0757 65.7724 78.8405C65.7724 81.2486 68.1209 81.3527 68.1209 81.7243C68.1209 81.7986 67.975 81.8284 67.9605 81.8284H66.1662C65.9766 81.8284 65.8161 81.9473 65.8161 82.2743V83.7608C65.6411 83.8203 65.4077 83.5527 65.291 83.5527C65.2326 83.5527 65.2618 84.0135 65.1597 84.073C65.0722 84.1176 63.4384 84.7122 63.2925 84.727C63.0591 84.7716 63.1174 84.3554 62.9862 84.3554C62.8695 84.3554 62.8695 84.7716 62.5777 84.7716C62.4027 84.7716 62.2568 84.6081 62.1255 84.6081C62.038 84.6081 62.3151 84.95 62.3151 85.054C62.3151 85.3365 61.7754 85.4405 61.7754 85.6338C61.7754 85.7378 62.286 85.5892 62.3589 85.5892C62.6215 85.5892 62.5923 85.9013 62.6944 85.9013C62.7965 85.9013 62.8695 85.5446 62.957 85.4851C63.132 85.3811 63.3363 85.5595 63.4238 85.5595C63.5697 85.5595 63.3071 85.2027 63.4384 85.1432C63.4384 85.1432 65.2034 84.3703 65.3201 84.4297C65.4222 84.4892 65.4077 84.6676 65.5244 84.727C65.6411 84.7865 65.8161 84.3108 65.8161 84.6081V88.2351C65.6119 88.3689 65.1743 88.4432 64.9409 88.4432C64.8242 88.4432 64.8825 88.0568 64.8096 88.0568C64.6929 88.0568 64.5762 88.3838 64.4011 88.3838C64.2407 88.3838 64.0073 87.9824 63.8468 87.9824C63.7447 87.9824 64.0364 88.4878 63.8614 88.577C63.1904 88.9189 62.1401 89.2459 62.1401 90.3162C62.1401 90.5392 62.2568 90.8068 62.213 90.8811C62.1693 90.9851 61.9359 91.1932 61.9505 91.2824C61.9505 91.3716 62.3881 91.3419 62.4756 91.4757C62.5194 91.55 62.5485 91.877 62.6361 91.877C62.709 91.877 62.8986 91.6243 63.0591 91.7135C63.5697 92.0257 64.4449 92.3676 64.8533 92.5905C64.9555 92.65 64.8971 92.977 64.9555 93.0068C65.0722 93.0662 65.3056 92.6946 65.6702 92.9027C65.7432 92.9324 65.8161 93.0513 65.8161 93.1851V94.3892C65.8161 94.6122 65.9182 94.6716 66.0349 94.7013L70.3528 95.5784C70.3528 95.5784 70.7321 95.6676 70.8633 95.6676C71.0092 95.6676 71.1989 95.6676 71.1843 95.2959V92.5459C71.1843 92.5162 71.2134 92.4567 71.2718 92.4567C71.5198 92.4567 71.4031 93.2 71.4614 93.2C71.5781 93.2 71.6511 92.6946 71.7969 92.6946C72.0012 92.6946 72.1324 92.8878 72.22 92.8432C72.2929 92.7986 72.1762 92.5608 72.1762 92.4122C72.1762 92.2784 72.5555 92.2189 73.0223 92.0405C73.4307 91.8919 73.7662 91.7284 73.8975 91.7284C73.9996 91.7284 74.0726 92.0108 74.1601 92.0108C74.233 92.0108 74.2476 91.6392 74.4081 91.6392C74.5394 91.6392 74.8311 91.8473 74.9041 91.7878C74.9624 91.7432 74.7582 91.4608 74.9186 91.3419C75.0353 91.2676 75.3125 91.0892 75.3125 91.0149C75.3125 90.9703 74.7728 90.9554 74.7436 90.9554C74.6415 90.9257 74.5248 90.5986 74.4518 90.5986C74.3643 90.5986 74.3643 90.9257 74.233 91.0297C74.1163 91.1189 73.8246 90.7176 73.6933 90.7176C73.6204 90.7176 73.7808 91.0149 73.7808 91.2527C73.7808 91.4905 72.3804 91.9513 72.1908 91.9513C71.8991 91.9513 71.8845 91.5797 71.8261 91.5797C71.7386 91.5797 71.7386 92.0257 71.4177 92.0257C71.2572 92.0257 71.1989 91.9068 71.1989 91.8176V88.2649C71.1989 88.1608 71.228 88.027 71.4177 88.0122C71.6511 87.9973 71.6657 88.5473 71.7532 88.5473C71.9136 88.5473 72.0012 87.9973 72.3075 87.9973C72.5409 87.9973 72.7305 88.3243 72.8764 88.3243C72.9785 88.3243 72.7014 87.9824 72.7014 87.8189C72.6868 87.6703 74.1163 87.7297 74.6707 86.7338Z" fill="black"/>
<path d="M15.7962 88.5176H14.8626V94.0176H15.7962V88.5176Z" fill="black"/>
<path d="M16.5985 94.0176V88.5176H17.4591L18.5823 91.654H18.5969V88.5176H19.443V94.0176H18.6261L17.4445 90.5838H17.43V94.0176H16.5985Z" fill="black"/>
<path d="M20.785 89.3351H19.8806V88.5176H22.6084V89.3351H21.704V94.0176H20.785V89.3351Z" fill="black"/>
<path d="M23.0607 94.0176V88.5176H25.5405V89.3351H23.9797V90.7473H25.1758V91.5797H23.9797V93.1851H25.6426V94.0176H23.0607Z" fill="black"/>
<path d="M27.1743 94.0176H26.2407V88.5176H27.5389C28.0641 88.5176 28.4434 88.6365 28.7059 88.8892C28.9685 89.1419 29.0998 89.5581 29.0998 90.1378C29.0998 90.3608 29.0852 90.5541 29.0414 90.7027C28.9977 90.8662 28.9539 91 28.8956 91.1041C28.8372 91.2081 28.7643 91.2973 28.6913 91.3716C28.6184 91.4311 28.5309 91.4905 28.4579 91.5203L29.2457 94.0176H28.2975L27.6411 91.7432C27.5827 91.7581 27.5098 91.7581 27.4222 91.7581C27.3347 91.7581 27.2472 91.7581 27.1597 91.7581V94.0176H27.1743ZM27.1013 90.9851H27.4368C27.5681 90.9851 27.6702 90.9703 27.7578 90.9405C27.8453 90.9108 27.9182 90.8662 27.9766 90.8068C28.0349 90.7473 28.0787 90.6581 28.0933 90.5392C28.1224 90.4351 28.137 90.2865 28.137 90.1378C28.137 89.8108 28.0787 89.5878 27.9766 89.4689C27.8745 89.35 27.6994 89.2905 27.4514 89.2905H27.1159V90.9851H27.1013Z" fill="black"/>
<path d="M29.8438 94.0176V88.5176H30.7044L31.8422 91.654H31.8568V88.5176H32.6883V94.0176H31.886L30.7044 90.5838H30.6898V94.0176H29.8438Z" fill="black"/>
<path d="M34.1033 94.0176H33.1989L34.1908 88.5176H35.3432L36.3351 94.0176H35.4453L35.2848 92.7986H34.2637L34.1033 94.0176ZM34.395 91.9662H35.139L34.7743 89.6027H34.7597L34.395 91.9662Z" fill="black"/>
<path d="M37.1812 89.3351H36.2768V88.5176H39.0046V89.3351H38.1002V94.0176H37.1812V89.3351Z" fill="black"/>
<path d="M40.5217 88.5176H39.5881V94.0176H40.5217V88.5176Z" fill="black"/>
<path d="M41.251 89.8405C41.251 89.6473 41.2802 89.4689 41.3386 89.2905C41.3969 89.1121 41.4844 88.9635 41.6011 88.8446C41.7178 88.7108 41.8637 88.6216 42.0388 88.5473C42.2138 88.473 42.4326 88.4432 42.666 88.4432C42.914 88.4432 43.1183 88.473 43.2933 88.5473C43.4684 88.6216 43.6143 88.7257 43.731 88.8446C43.8477 88.9784 43.9352 89.127 43.9935 89.2905C44.0519 89.4689 44.0811 89.6473 44.0811 89.8405V92.6797C44.0811 92.8729 44.0519 93.0513 43.9935 93.2297C43.9352 93.4081 43.8477 93.5567 43.731 93.6756C43.6143 93.8094 43.4684 93.8986 43.2933 93.9729C43.1183 94.0473 42.8995 94.077 42.666 94.077C42.4181 94.077 42.2138 94.0324 42.0388 93.9729C41.8637 93.8986 41.7178 93.7946 41.6011 93.6756C41.4844 93.5419 41.3969 93.3932 41.3386 93.2297C41.2802 93.0513 41.251 92.8729 41.251 92.6797V89.8405ZM42.1701 92.6648C42.1701 92.8729 42.1992 93.0216 42.2722 93.1256C42.3451 93.2297 42.4764 93.2743 42.666 93.2743C42.8557 93.2743 42.987 93.2297 43.0599 93.1256C43.1329 93.0216 43.162 92.8729 43.162 92.6648V89.8702C43.162 89.6621 43.1329 89.5135 43.0599 89.4094C42.987 89.3054 42.8557 89.2608 42.666 89.2608C42.4764 89.2608 42.3451 89.3054 42.2722 89.4094C42.1992 89.5135 42.1701 89.6621 42.1701 89.8702V92.6648Z" fill="black"/>
<path d="M44.7229 94.0176V88.5176H45.5835L46.7067 91.654H46.7213V88.5176H47.5674V94.0176H46.7505L45.5689 90.5838H45.5543V94.0176H44.7229Z" fill="black"/>
<path d="M48.9824 94.0176H48.0779L49.0699 88.5176H50.2223L51.2142 94.0176H50.3244L50.1639 92.7986H49.1428L48.9824 94.0176ZM49.2741 91.9662H50.0181L49.6534 89.6027H49.6388L49.2741 91.9662Z" fill="black"/>
<path d="M51.681 94.0176V88.5176H52.6146V93.1851H54.0734V94.0176H51.681Z" fill="black"/>
<path d="M20.4885 17.116H22.7325L24.5805 27.236H24.6245L26.1425 17.116H28.6945L25.9005 33H23.6125L21.6325 22.506H21.5885L19.7405 33H17.4525L14.4385 17.116H16.9905L18.6625 27.236H18.7065L20.4885 17.116ZM33.1603 24.244H34.1283C34.495 24.244 34.803 24.2073 35.0523 24.134C35.3163 24.0607 35.529 23.9287 35.6903 23.738C35.8516 23.5473 35.969 23.298 36.0423 22.99C36.1156 22.6673 36.1523 22.2713 36.1523 21.802C36.1523 20.8633 35.9983 20.2253 35.6903 19.888C35.3823 19.536 34.8616 19.36 34.1283 19.36H33.1603V24.244ZM33.1603 33H30.4323V17.116H34.2603C35.7856 17.116 36.937 17.4753 37.7143 18.194C38.4916 18.9127 38.8803 20.1153 38.8803 21.802C38.8803 22.4473 38.8216 22.9973 38.7043 23.452C38.6016 23.9067 38.455 24.2953 38.2643 24.618C38.0883 24.926 37.883 25.1753 37.6483 25.366C37.4283 25.5567 37.201 25.7033 36.9663 25.806L39.2763 33H36.5043L34.5683 26.422C34.3923 26.4513 34.1723 26.4733 33.9083 26.488C33.659 26.488 33.4096 26.488 33.1603 26.488V33ZM41.8063 33V17.116H44.5343V33H41.8063ZM49.1394 19.492H46.4994V17.116H54.5074V19.492H51.8674V33H49.1394V19.492ZM56.1061 33V17.116H63.4101V19.492H58.8341V23.584H62.3541V25.96H58.8341V30.624H63.7181V33H56.1061Z" fill="black"/>
<path d="M15.4323 51V35.116H23.0443V37.492H18.1603V41.584H21.8123V43.96H18.1603V51H15.4323ZM27.9357 47.084C27.9357 47.6853 28.0384 48.1327 28.2437 48.426C28.449 48.7047 28.8304 48.844 29.3877 48.844C29.945 48.844 30.3264 48.7047 30.5317 48.426C30.737 48.1327 30.8397 47.6853 30.8397 47.084V39.032C30.8397 38.4307 30.737 37.9907 30.5317 37.712C30.3264 37.4187 29.945 37.272 29.3877 37.272C28.8304 37.272 28.449 37.4187 28.2437 37.712C28.0384 37.9907 27.9357 38.4307 27.9357 39.032V47.084ZM25.2077 38.966C25.2077 38.4087 25.2884 37.8807 25.4497 37.382C25.6257 36.8833 25.8824 36.4507 26.2197 36.084C26.5717 35.7173 27.0044 35.4313 27.5177 35.226C28.0457 35.006 28.669 34.896 29.3877 34.896C30.1064 34.896 30.7224 35.006 31.2357 35.226C31.7637 35.4313 32.1964 35.7173 32.5337 36.084C32.8857 36.4507 33.1424 36.8833 33.3037 37.382C33.4797 37.8807 33.5677 38.4087 33.5677 38.966V47.15C33.5677 47.7073 33.4797 48.2353 33.3037 48.734C33.1424 49.2327 32.8857 49.6653 32.5337 50.032C32.1964 50.3987 31.7637 50.692 31.2357 50.912C30.7224 51.1173 30.1064 51.22 29.3877 51.22C28.669 51.22 28.0457 51.1173 27.5177 50.912C27.0044 50.692 26.5717 50.3987 26.2197 50.032C25.8824 49.6653 25.6257 49.2327 25.4497 48.734C25.2884 48.2353 25.2077 47.7073 25.2077 47.15V38.966ZM38.9357 42.244H39.9037C40.2704 42.244 40.5784 42.2073 40.8277 42.134C41.0917 42.0607 41.3044 41.9287 41.4657 41.738C41.627 41.5473 41.7444 41.298 41.8177 40.99C41.891 40.6673 41.9277 40.2713 41.9277 39.802C41.9277 38.8633 41.7737 38.2253 41.4657 37.888C41.1577 37.536 40.637 37.36 39.9037 37.36H38.9357V42.244ZM38.9357 51H36.2077V35.116H40.0357C41.561 35.116 42.7124 35.4753 43.4897 36.194C44.267 36.9127 44.6557 38.1153 44.6557 39.802C44.6557 40.4473 44.597 40.9973 44.4797 41.452C44.377 41.9067 44.2304 42.2953 44.0397 42.618C43.8637 42.926 43.6584 43.1753 43.4237 43.366C43.2037 43.5567 42.9764 43.7033 42.7417 43.806L45.0517 51H42.2797L40.3437 44.422C40.1677 44.4513 39.9477 44.4733 39.6837 44.488C39.4344 44.488 39.185 44.488 38.9357 44.488V51Z" fill="black"/>
<path d="M18.3234 60.244H19.2914C19.6581 60.244 19.9661 60.2073 20.2154 60.134C20.4794 60.0607 20.6921 59.9287 20.8534 59.738C21.0147 59.5473 21.1321 59.298 21.2054 58.99C21.2787 58.6673 21.3154 58.2713 21.3154 57.802C21.3154 56.8633 21.1614 56.2253 20.8534 55.888C20.5454 55.536 20.0247 55.36 19.2914 55.36H18.3234V60.244ZM18.3234 69H15.5954V53.116H19.4234C20.9487 53.116 22.1001 53.4753 22.8774 54.194C23.6547 54.9127 24.0434 56.1153 24.0434 57.802C24.0434 58.4473 23.9847 58.9973 23.8674 59.452C23.7647 59.9067 23.6181 60.2953 23.4274 60.618C23.2514 60.926 23.0461 61.1753 22.8114 61.366C22.5914 61.5567 22.3641 61.7033 22.1294 61.806L24.4394 69H21.6674L19.7314 62.422C19.5554 62.4513 19.3354 62.4733 19.0714 62.488C18.8221 62.488 18.5727 62.488 18.3234 62.488V69ZM26.9694 69V53.116H29.6974V69H26.9694ZM36.4804 60.948H40.9464V69H39.6264L39.1204 67.812C38.7098 68.296 38.3064 68.6553 37.9104 68.89C37.5291 69.11 37.0158 69.22 36.3704 69.22C35.2851 69.22 34.4051 68.8607 33.7304 68.142C33.0558 67.4233 32.7184 66.426 32.7184 65.15V56.966C32.7184 56.4087 32.7991 55.8807 32.9604 55.382C33.1364 54.8833 33.3858 54.4507 33.7084 54.084C34.0458 53.7173 34.4638 53.4313 34.9624 53.226C35.4611 53.006 36.0478 52.896 36.7224 52.896C37.3971 52.896 37.9911 53.0133 38.5044 53.248C39.0178 53.4827 39.4431 53.798 39.7804 54.194C40.1324 54.59 40.3891 55.052 40.5504 55.58C40.7264 56.108 40.8144 56.6653 40.8144 57.252V58.264H38.2184C38.2184 57.6773 38.1891 57.1933 38.1304 56.812C38.0718 56.416 37.9764 56.108 37.8444 55.888C37.7124 55.6533 37.5438 55.492 37.3384 55.404C37.1478 55.316 36.9204 55.272 36.6564 55.272C36.3191 55.272 36.0331 55.3967 35.7984 55.646C35.5638 55.8807 35.4464 56.3353 35.4464 57.01V65.172C35.4464 65.6853 35.5418 66.096 35.7324 66.404C35.9231 66.6973 36.2531 66.844 36.7224 66.844C37.2798 66.844 37.6684 66.6753 37.8884 66.338C38.1084 66.0007 38.2184 65.436 38.2184 64.644V63.104H36.4804V60.948ZM43.7184 69V53.116H46.4464V59.584H49.3504V53.116H52.0784V69H49.3504V61.96H46.4464V69H43.7184ZM56.3024 55.492H53.6624V53.116H61.6704V55.492H59.0304V69H56.3024V55.492ZM68.2412 57.032C68.2119 56.6947 68.1459 56.416 68.0432 56.196C67.9552 55.9613 67.8379 55.778 67.6912 55.646C67.5592 55.514 67.4126 55.4187 67.2512 55.36C67.0899 55.3013 66.9359 55.272 66.7892 55.272C66.3492 55.272 66.0119 55.4113 65.7772 55.69C65.5426 55.954 65.4252 56.3353 65.4252 56.834C65.4252 57.2887 65.5572 57.7067 65.8212 58.088C66.0999 58.4693 66.4446 58.8507 66.8552 59.232C67.2659 59.6133 67.7132 60.002 68.1972 60.398C68.6812 60.7793 69.1286 61.2047 69.5392 61.674C69.9499 62.1433 70.2872 62.664 70.5512 63.236C70.8299 63.7933 70.9692 64.4313 70.9692 65.15C70.9692 65.81 70.8592 66.3967 70.6392 66.91C70.4339 67.4087 70.1406 67.834 69.7592 68.186C69.3926 68.5233 68.9379 68.78 68.3952 68.956C67.8672 69.132 67.2879 69.22 66.6572 69.22C66.0266 69.22 65.4619 69.1027 64.9632 68.868C64.4646 68.6333 64.0392 68.318 63.6872 67.922C63.3499 67.5113 63.0859 67.042 62.8952 66.514C62.7046 65.986 62.5946 65.4213 62.5652 64.82L65.1612 64.446C65.2199 65.2527 65.3959 65.854 65.6892 66.25C65.9826 66.646 66.3492 66.844 66.7892 66.844C67.2586 66.844 67.6399 66.7193 67.9332 66.47C68.2266 66.2207 68.3732 65.8613 68.3732 65.392C68.3732 64.864 68.2339 64.3947 67.9552 63.984C67.6912 63.5733 67.3539 63.1773 66.9432 62.796C66.5326 62.4147 66.0852 62.0333 65.6012 61.652C65.1172 61.2707 64.6699 60.8527 64.2592 60.398C63.8486 59.9433 63.5039 59.43 63.2252 58.858C62.9612 58.286 62.8292 57.6187 62.8292 56.856C62.8292 55.58 63.1959 54.6047 63.9292 53.93C64.6626 53.2407 65.7039 52.896 67.0532 52.896C67.6106 52.896 68.1092 52.9913 68.5492 53.182C68.9892 53.3727 69.3632 53.644 69.6712 53.996C69.9939 54.3333 70.2506 54.7367 70.4412 55.206C70.6466 55.6753 70.7786 56.1887 70.8372 56.746L68.2412 57.032Z" fill="black"/>
</svg>
