<svg width="26" height="21" viewBox="0 0 26 21" fill="none" xmlns="http://www.w3.org/2000/svg">
<path d="M25.2679 3.19278C24.9734 2.09172 24.1053 1.22368 23.0043 0.92921C21.007 0.394043 13 0.394043 13 0.394043C13 0.394043 4.99298 0.394043 2.9957 0.92921C1.89464 1.22368 1.0266 2.09172 0.732127 3.19278C0.19696 5.19006 0.19696 10.6365 0.19696 10.6365C0.19696 10.6365 0.19696 16.0829 0.732127 18.0801C1.0266 19.1812 1.89464 20.0493 2.9957 20.3437C4.99298 20.8789 13 20.8789 13 20.8789C13 20.8789 21.007 20.8789 23.0043 20.3437C24.1066 20.0493 24.9734 19.1812 25.2679 18.0801C25.803 16.0829 25.803 10.6365 25.803 10.6365C25.803 10.6365 25.803 5.19006 25.2679 3.19278ZM10.4394 15.0714V6.2015L18.1212 10.6365L10.4394 15.0714Z" fill="white"/>
</svg>
